<svg id="App" xmlns="http://www.w3.org/2000/svg" width="96" height="96" viewBox="0 0 96 96">
  <g id="组_185" data-name="组 185" transform="translate(36.314 36.314)">
    <path id="路径_59" data-name="路径 59" d="M40.859,17.255H21.086a3.831,3.831,0,0,0-3.831,3.831V40.859a3.831,3.831,0,0,0,3.831,3.831H40.859a3.831,3.831,0,0,0,3.831-3.831V21.086a3.831,3.831,0,0,0-3.831-3.831Z" transform="translate(-17.255 -17.255)" fill="#c4a2fc"/>
    <path id="路径_60" data-name="路径 60" d="M46.345,44.827H66.118A3.831,3.831,0,0,0,69.948,41V21.231A3.831,3.831,0,0,0,66.118,17.4H46.345a3.831,3.831,0,0,0-3.831,3.831V41a3.831,3.831,0,0,0,3.831,3.831Z" transform="translate(-10.262 -17.215)" fill="#c4a2fc"/>
    <path id="路径_61" data-name="路径 61" d="M40.859,42.375H21.086a3.831,3.831,0,0,0-3.831,3.831V65.979a3.831,3.831,0,0,0,3.831,3.831H40.859a3.831,3.831,0,0,0,3.831-3.831V46.206A3.831,3.831,0,0,0,40.859,42.375Z" transform="translate(-17.255 -10.301)" fill="#c4a2fc"/>
    <path id="路径_62" data-name="路径 62" d="M66.118,42.514H46.345a3.831,3.831,0,0,0-3.831,3.831V66.118a3.831,3.831,0,0,0,3.831,3.831H66.118a3.831,3.831,0,0,0,3.831-3.831V46.345A3.831,3.831,0,0,0,66.118,42.514Z" transform="translate(-10.262 -10.262)" fill="#c4a2fc"/>
  </g>
  <path id="路径_63" data-name="路径 63" d="M46.615,0H5.263A5.089,5.089,0,0,0,0,4.895V74.235A5.089,5.089,0,0,0,5.263,79.13H46.615a5.089,5.089,0,0,0,5.263-4.895V4.895A5.089,5.089,0,0,0,46.615,0ZM3.509,15.908h44.86V63.223H3.509ZM5.263,3.263H46.615a1.7,1.7,0,0,1,1.754,1.632v7.75H3.509V4.895A1.7,1.7,0,0,1,5.263,3.263Zm41.351,72.6H5.263a1.7,1.7,0,0,1-1.754-1.632v-7.75h44.86v7.75A1.7,1.7,0,0,1,46.615,75.867Z" fill="#151a6a"/>
  <path id="路径_64" data-name="路径 64" d="M10.133,6.48H21.771a1.254,1.254,0,0,0,1.2-1.3,1.254,1.254,0,0,0-1.2-1.3H10.133a1.254,1.254,0,0,0-1.2,1.3A1.254,1.254,0,0,0,10.133,6.48Z" transform="translate(9.827 1.395)" fill="#151a6a"/>
  <path id="路径_65" data-name="路径 65" d="M5.7,26.947H15.977a1.463,1.463,0,0,0,1.463-1.463V15.207a1.463,1.463,0,0,0-1.463-1.463H5.7a1.463,1.463,0,0,0-1.463,1.463V25.484A1.463,1.463,0,0,0,5.7,26.947ZM7.165,16.67h7.348v7.35H7.165Z" transform="translate(2 4.82)" fill="#151a6a"/>
  <path id="路径_66" data-name="路径 66" d="M15.977,25.733H5.7A1.463,1.463,0,0,0,4.239,27.2V37.47A1.463,1.463,0,0,0,5.7,38.933H15.977A1.463,1.463,0,0,0,17.44,37.47V27.2a1.463,1.463,0,0,0-1.463-1.463ZM14.514,36.007H7.165V28.659h7.349Z" transform="translate(2 11.8)" fill="#151a6a"/>
</svg>
