<svg xmlns="http://www.w3.org/2000/svg" width="96" height="96" viewBox="0 0 96 96">
  <g id="brainstorming" transform="translate(-0.998 -2.002)">
    <path id="路径_88" data-name="路径 88" d="M75.659,37.192H59.839l11.6-23.152a1.359,1.359,0,0,0-1.214-1.97H34.875a1.359,1.359,0,0,0-1.3.952L24.064,42.931a1.359,1.359,0,0,0,1.3,1.767H37.136l-8.5,33.5a1.359,1.359,0,0,0,2.2,1.406L76.553,39.571a1.359,1.359,0,0,0-.895-2.379Z" transform="translate(19.984 18.058)" fill="#c4a2fc"/>
    <g id="组_189" data-name="组 189" transform="translate(0.998 2.002)">
      <path id="路径_89" data-name="路径 89" d="M23.515,28.886a1.579,1.579,0,0,0-1.5,1.65,5.777,5.777,0,0,1-3.57,5.6l-.171.069a7.445,7.445,0,0,0-5.141-2.368,1.552,1.552,0,0,0-1.641,1.513A1.579,1.579,0,0,0,13,36.991a4.317,4.317,0,0,1,3.148,7.077,1.579,1.579,0,1,0,2.433,2.013A7.5,7.5,0,0,0,19.9,38.931,8.927,8.927,0,0,0,25.166,30.4a1.557,1.557,0,0,0-1.652-1.509Z" transform="translate(5.075 13.561)" fill="#151a6a"/>
      <path id="路径_90" data-name="路径 90" d="M19.9,13.585a7.5,7.5,0,0,0-1.312-7.151,1.58,1.58,0,1,0-2.433,2.015A4.317,4.317,0,0,1,13,15.516a1.58,1.58,0,0,0,.128,3.158,7.44,7.44,0,0,0,5.139-2.368l.172.069a5.774,5.774,0,0,1,3.57,5.6,1.581,1.581,0,0,0,3.158.145A8.927,8.927,0,0,0,19.9,13.585Z" transform="translate(5.074 0.233)" fill="#151a6a"/>
      <path id="路径_91" data-name="路径 91" d="M19.516,27.836a14.479,14.479,0,0,0-8.053-13.023,1.579,1.579,0,1,0-1.412,2.825,11.4,11.4,0,0,1,0,20.4,1.579,1.579,0,1,0,1.412,2.825,14.479,14.479,0,0,0,8.053-13.023Z" transform="translate(3.738 5.318)" fill="#151a6a"/>
      <path id="路径_92" data-name="路径 92" d="M30.953,28.886a1.579,1.579,0,0,1,1.508,1.65,5.777,5.777,0,0,0,3.57,5.6l.172.069a7.438,7.438,0,0,1,5.139-2.368,1.552,1.552,0,0,1,1.641,1.513A1.579,1.579,0,0,1,41.461,37a4.317,4.317,0,0,0-3.144,7.072,1.579,1.579,0,1,1-2.433,2.013,7.5,7.5,0,0,1-1.312-7.149A8.93,8.93,0,0,1,29.3,30.391a1.557,1.557,0,0,1,1.65-1.5Z" transform="translate(15.384 13.561)" fill="#151a6a"/>
      <path id="路径_93" data-name="路径 93" d="M34.572,13.585a7.5,7.5,0,0,1,1.312-7.151,1.58,1.58,0,0,1,2.433,2.015,4.317,4.317,0,0,0,3.144,7.066,1.58,1.58,0,1,1-.128,3.158A7.443,7.443,0,0,1,36.194,16.3l-.171.069a5.773,5.773,0,0,0-3.562,5.6,1.581,1.581,0,1,1-3.158.145,8.927,8.927,0,0,1,5.269-8.534Z" transform="translate(15.384 0.233)" fill="#151a6a"/>
      <path id="路径_94" data-name="路径 94" d="M33.724,27.836a14.479,14.479,0,0,1,8.053-13.023,1.579,1.579,0,1,1,1.412,2.825,11.4,11.4,0,0,0,0,20.4,1.579,1.579,0,1,1-1.412,2.825,14.479,14.479,0,0,1-8.053-13.023Z" transform="translate(17.948 5.318)" fill="#151a6a"/>
      <path id="路径_95" data-name="路径 95" d="M75.922,35.157A15.063,15.063,0,0,0,72.1,25.086a10.17,10.17,0,0,0-7.412-14.3,14.473,14.473,0,0,0-26.228-.832,14.474,14.474,0,0,0-26.229.832A10.246,10.246,0,0,0,3.872,20.8a10.123,10.123,0,0,0,.947,4.282,15.182,15.182,0,0,0,0,20.141,10.123,10.123,0,0,0-.947,4.282A10.246,10.246,0,0,0,12.24,59.528a14.474,14.474,0,0,0,26.229.834A14.473,14.473,0,0,0,64.7,59.528a10.17,10.17,0,0,0,7.412-14.3A15.057,15.057,0,0,0,75.922,35.157Zm-50.378,30a11.327,11.327,0,0,1-9.75-5.618,10.148,10.148,0,0,0,3.722-1.421,1.579,1.579,0,1,0-1.689-2.667,7.036,7.036,0,1,1-3.764-12.976,1.579,1.579,0,1,0,0-3.158,10.02,10.02,0,0,0-7.377,3.191,11.954,11.954,0,0,1,0-14.708,10.012,10.012,0,0,0,7.374,3.191,1.579,1.579,0,1,0,0-3.158,7.033,7.033,0,1,1,3.764-12.974,1.579,1.579,0,0,0,1.689-2.668,10.148,10.148,0,0,0-3.722-1.421,11.313,11.313,0,0,1,21.088,5.722v37.32A11.353,11.353,0,0,1,25.544,65.157Zm33.553-9.7a1.579,1.579,0,1,0-1.689,2.667,10.142,10.142,0,0,0,3.72,1.421,11.312,11.312,0,0,1-21.087-5.721V16.5a11.312,11.312,0,0,1,21.087-5.722,10.142,10.142,0,0,0-3.72,1.421A1.579,1.579,0,0,0,59.1,14.864a7.033,7.033,0,1,1,3.764,12.974,1.579,1.579,0,0,0,0,3.158,10.012,10.012,0,0,0,7.374-3.191,11.954,11.954,0,0,1,0,14.708,10.017,10.017,0,0,0-7.374-3.193,1.579,1.579,0,1,0,0,3.158A7.034,7.034,0,1,1,59.1,55.454Z" transform="translate(-0.998 -2.002)" fill="#151a6a"/>
    </g>
  </g>
</svg>
