<?xml version="1.0" encoding="UTF-8"?>
<svg width="512px" height="513px" viewBox="0 0 512 513" version="1.1" xmlns="http://www.w3.org/2000/svg" xmlns:xlink="http://www.w3.org/1999/xlink">
    <title>dribbble</title>
    <g id="Page-1" stroke="none" stroke-width="1" fill="none" fill-rule="evenodd">
        <g id="dribbble" fill="#FFFFFF" fill-rule="nonzero">
            <path d="M348.885333,494.293333 C349.312,494.165333 349.717333,493.994667 350.144,493.845333 C610.730667,390.314667 538.645333,0 256,0 C114.154667,0 0,115.626667 0,256 C0,433.642667 179.925333,560.405333 348.885333,494.293333 Z M112.661333,427.925333 C130.837333,397.376 189.653333,311.189333 290.048,281.450667 C311.04,334.976 325.76,397.418667 327.210667,468.224 C251.136,493.802667 170.901333,476.586667 112.661333,427.925333 Z M358.677333,454.869333 C355.882667,386.837333 341.994667,326.506667 322.197333,274.24 C366.613333,267.306667 418.026667,271.936 476.330667,295.296 C463.936,364.864 419.456,423.338667 358.677333,454.869333 L358.677333,454.869333 Z M479.68,262.208 C415.466667,238.08 358.869333,235.072 309.888,244.416 C302.314667,227.349333 294.357333,210.944 285.930667,195.84 C361.088,165.824 405.504,129.237333 425.386667,109.866667 C460.48,150.485333 481.322667,203.072 479.68,262.208 L479.68,262.208 Z M402.666667,87.0826667 C384.576,104.298667 341.973333,139.072 269.12,167.509333 C233.408,111.018667 195.221333,71.168 171.029333,48.8533333 C248.426667,16.9813333 337.685333,30.592 402.666667,87.0826667 Z M140.437333,64.4906667 C158.698667,80.5546667 198.784,119.125333 237.461333,178.773333 C184.341333,195.882667 117.738667,208.448 36.736,210.218667 C49.6213333,148.48 88.1066667,96.1706667 140.437333,64.4906667 Z M32.6826667,242.346667 C123.349333,240.874667 196.736,226.56 254.741333,207.189333 C262.762667,221.248 270.378667,236.565333 277.696,252.48 C176.682667,284.650667 113.557333,367.701333 89.3866667,405.205333 C50.3893333,361.685333 28.8853333,304.896 32.6826667,242.346667 Z" id="Shape"></path>
        </g>
    </g>
</svg>