<svg xmlns="http://www.w3.org/2000/svg" width="96" height="96" viewBox="0 0 96 96">
  <g id="html-file" transform="translate(-1 -1)">
    <g id="组_186" data-name="组 186" transform="translate(31.94 39.683)">
      <path id="路径_67" data-name="路径 67" d="M33.38,35.354,23.648,20.77,13.93,35.354Z" transform="translate(-13.93 -19.444)" fill="#c4a2fc"/>
      <path id="路径_68" data-name="路径 68" d="M49.749,33.77,39.5,72.22l.08.3L70.591,33.77Z" transform="translate(-5.598 -15.208)" fill="#c4a2fc"/>
      <path id="路径_69" data-name="路径 69" d="M34.822,33.77H13.98L44.992,72.525l.08-.3Z" transform="translate(-13.914 -15.208)" fill="#c4a2fc"/>
      <path id="路径_70" data-name="路径 70" d="M32.891,34.62,41.907,21.1l-.875-1.326H23Z" transform="translate(-10.975 -19.77)" fill="#c4a2fc"/>
      <path id="路径_71" data-name="路径 71" d="M32.33,34.768H48.6l-8.127-12.2Z" transform="translate(-7.934 -18.858)" fill="#c4a2fc"/>
      <path id="路径_72" data-name="路径 72" d="M48.686,34.62l9.891-14.85H40.545L39.67,21.1Z" transform="translate(-5.543 -19.77)" fill="#c4a2fc"/>
      <path id="路径_73" data-name="路径 73" d="M48.33,35.354H67.78L58.062,20.77Z" transform="translate(-2.721 -19.444)" fill="#c4a2fc"/>
      <path id="路径_74" data-name="路径 74" d="M49.523,33.77H31.77l8.883,33.305Z" transform="translate(-8.117 -15.208)" fill="#c4a2fc"/>
    </g>
    <path id="路径_75" data-name="路径 75" d="M51.721,12.775,40.358,1.412A1.491,1.491,0,0,0,39.35,1H5.261A4.261,4.261,0,0,0,1,5.261v62.5a4.261,4.261,0,0,0,4.261,4.261H47.872a4.261,4.261,0,0,0,4.261-4.261V13.783a1.491,1.491,0,0,0-.412-1.008ZM40.77,5.843l6.519,6.519H40.77Zm8.522,61.914a1.42,1.42,0,0,1-1.42,1.42H5.261a1.42,1.42,0,0,1-1.42-1.42V5.261a1.42,1.42,0,0,1,1.42-1.42H37.93v9.943a1.42,1.42,0,0,0,1.42,1.42h9.943Z" fill="#151a6a"/>
    <path id="路径_76" data-name="路径 76" d="M8.18,25.85l4.66-7.31a1,1,0,1,0-1.68-1.08l-5,7.84a1,1,0,0,0,0,1.06l5,8.16a1,1,0,0,0,1.7-1Z" transform="translate(0 12.307)" fill="#151a6a" stroke="#151a6a" stroke-width="1"/>
    <path id="路径_77" data-name="路径 77" d="M25.46,17.16a1,1,0,0,0-.3,1.38l4.66,7.31-4.67,7.63a1,1,0,0,0,1.7,1l5-8.16a1,1,0,0,0,0-1.06l-5-7.84a1,1,0,0,0-1.39-.26Z" transform="translate(14.838 12.311)" fill="#151a6a" stroke="#151a6a" stroke-width="1"/>
    <path id="路径_78" data-name="路径 78" d="M22.55,17.07a1,1,0,0,0-1.3.56l-6.36,16a1,1,0,1,0,1.86.74l6.36-16a1,1,0,0,0-.56-1.3Z" transform="translate(7.76 12.363)" fill="#151a6a" stroke="#151a6a" stroke-width="1"/>
  </g>
</svg>
