<svg xmlns="http://www.w3.org/2000/svg" width="96" height="96" viewBox="0 0 96 96">
  <g id="palette" transform="translate(-0.998 -1.007)">
    <path id="路径_79" data-name="路径 79" d="M76.3,15.653a5.654,5.654,0,0,0-7.789-.191L28.655,51.519a15.6,15.6,0,0,1,7.606,4.2,15.355,15.355,0,0,1,3.556,5.536L76.363,23.567a5.663,5.663,0,0,0-.066-7.914Z" transform="translate(19.056 15.206)" fill="#c4a2fc"/>
    <path id="路径_80" data-name="路径 80" d="M38.82,45.387a12.127,12.127,0,0,0-17.114,0C14.761,52.318,14.028,68.1,14,68.769a1.339,1.339,0,0,0,1.4,1.4c.669-.028,16.475-.759,23.42-7.692a12.078,12.078,0,0,0,0-17.089Z" transform="translate(10.828 26.838)" fill="#c4a2fc"/>
    <g id="组_187" data-name="组 187" transform="translate(0.998 1.007)">
      <path id="路径_81" data-name="路径 81" d="M33.779,72.179A35.741,35.741,0,0,1,1.032,38.914L1,38.467a4.553,4.553,0,0,1,8.412-2.576A17.088,17.088,0,0,0,40.8,24.77a16.825,16.825,0,0,0-8.662-13.012A5.7,5.7,0,0,1,34.586,1.064a36.259,36.259,0,0,1,5.052.068,35.649,35.649,0,0,1-5.869,71.057ZM3.853,38.326l.021.415a32.817,32.817,0,1,0,65.467-4.665A32.979,32.979,0,0,0,39.412,3.964,33.856,33.856,0,0,0,34.757,3.9a2.852,2.852,0,0,0-1.218,5.365,19.652,19.652,0,0,1,10.1,15.2A19.941,19.941,0,0,1,7.025,37.438a1.7,1.7,0,0,0-3.172.888Z" transform="translate(-0.998 -1.007)" fill="#151a6a"/>
      <path id="路径_82" data-name="路径 82" d="M41.129,29.258a7.129,7.129,0,1,1,7.129-7.129A7.129,7.129,0,0,1,41.129,29.258Zm0-11.406a4.277,4.277,0,1,0,4.277,4.277A4.277,4.277,0,0,0,41.129,17.852Z" transform="translate(13.055 4.952)" fill="#151a6a"/>
      <path id="路径_83" data-name="路径 83" d="M39.129,45.258a7.129,7.129,0,1,1,7.129-7.129A7.129,7.129,0,0,1,39.129,45.258Zm0-11.406a4.277,4.277,0,1,0,4.277,4.277A4.277,4.277,0,0,0,39.129,33.852Z" transform="translate(12.203 11.764)" fill="#151a6a"/>
      <path id="路径_84" data-name="路径 84" d="M24.129,49.258a7.129,7.129,0,1,1,7.129-7.129,7.129,7.129,0,0,1-7.129,7.129Zm0-11.406a4.277,4.277,0,1,0,4.277,4.277A4.277,4.277,0,0,0,24.129,37.852Z" transform="translate(5.816 13.468)" fill="#151a6a"/>
    </g>
  </g>
</svg>
