<?xml version="1.0" encoding="UTF-8"?>
<svg width="512px" height="512px" viewBox="0 0 512 512" version="1.1" xmlns="http://www.w3.org/2000/svg" xmlns:xlink="http://www.w3.org/1999/xlink">
    <title>phone</title>
    <g id="Page-1" stroke="none" stroke-width="1" fill="none" fill-rule="evenodd">
        <g id="phone" fill="#FFFFFF" fill-rule="nonzero">
            <path d="M498.827,377.633 L435.178,313.984 C417.63,296.437 389.076,296.437 371.529,313.984 L342.598,342.915 C329.304,356.209 307.672,356.205 294.383,342.92 L168.983,217.413 C155.658,204.088 155.656,182.521 168.983,169.194 C173.643,164.534 187.024,151.153 197.914,140.263 C215.385,122.793 215.629,94.328 197.897,76.598 L134.265,13.166 C116.717,-4.381 88.164,-4.381 70.663,13.12 C57.567,26.102 53.343,30.29 47.471,36.111 C-15.809,99.39 -15.809,202.353 47.468,265.63 L246.16,464.426 C309.588,527.855 412.248,527.86 475.681,464.426 L498.827,441.281 C516.375,423.733 516.375,395.181 498.827,377.633 Z M91.833,34.382 C97.682,28.533 107.198,28.532 113.066,34.398 L176.698,97.83 C182.561,103.693 182.561,113.182 176.698,119.046 L166.089,129.654 L81.279,44.844 L91.833,34.382 Z M267.38,443.213 L68.687,244.415 C19.729,195.457 17.038,118.582 60.411,66.409 L144.975,150.973 C122.755,176.162 123.681,214.545 147.762,238.626 L273.158,364.127 C273.159,364.128 273.161,364.13 273.162,364.131 C297.217,388.187 335.598,389.173 360.818,366.923 L445.384,451.489 C393.377,494.787 316.675,492.508 267.38,443.213 Z M477.612,420.065 L467.003,430.674 L382.138,345.808 L392.745,335.2 C398.595,329.351 408.112,329.35 413.962,335.2 L477.611,398.849 C483.461,404.699 483.461,414.217 477.612,420.065 Z" id="Shape"></path>
        </g>
    </g>
</svg>