<svg xmlns="http://www.w3.org/2000/svg" width="96" height="96" viewBox="0 0 96 96">
  <g id="sensor" transform="translate(-1 -4)">
    <path id="路径_32" data-name="路径 32" d="M43,52.6,72.209,63.937a4.144,4.144,0,0,0,.114-.917V32.737a4.248,4.248,0,0,0-2.765-3.961L43.167,18.536c-.054-.02-.111-.027-.166-.047Z" transform="translate(24.677 16.74)" fill="#c4a2fc"/>
    <path id="路径_33" data-name="路径 33" d="M52.776,44.23,22.161,58.218a4.561,4.561,0,0,0,1.119.739L51.057,71.648a4.085,4.085,0,0,0,3.437,0L82.27,58.957a4.561,4.561,0,0,0,1.119-.739Z" transform="translate(12.449 27.973)" fill="#c4a2fc"/>
    <path id="路径_34" data-name="路径 34" d="M48.666,52.6V18.488c-.053.018-.107.027-.158.047l-24.9,10.239A4.247,4.247,0,0,0,21,32.736V63.017a4.38,4.38,0,0,0,.108.919Z" transform="translate(13.61 16.741)" fill="#c4a2fc"/>
    <g id="组_182" data-name="组 182" transform="translate(1 4)">
      <path id="路径_35" data-name="路径 35" d="M37.624,4A36.25,36.25,0,1,0,74.248,40.248,36.437,36.437,0,0,0,37.624,4Zm0,2.9A33.614,33.614,0,0,1,71.1,36.536L59.423,24.975a31.052,31.052,0,0,0-43.6,0L4.144,36.536A33.614,33.614,0,0,1,37.624,6.9ZM70.712,40.248,57.351,53.471a28.133,28.133,0,0,1-39.454,0L4.536,40.248,17.9,27.025a28.1,28.1,0,0,1,39.454,0ZM37.624,73.6A33.614,33.614,0,0,1,4.144,43.96L15.825,55.522a31.088,31.088,0,0,0,43.6,0L71.1,43.96A33.614,33.614,0,0,1,37.624,73.6Z" transform="translate(-1 -4)" fill="#151a6a"/>
      <path id="路径_36" data-name="路径 36" d="M36.441,16a23.068,23.068,0,1,0,0,46.131A23.256,23.256,0,0,0,59.883,39.065,23.283,23.283,0,0,0,36.441,16Zm0,42.582A19.519,19.519,0,1,1,56.276,39.065,19.678,19.678,0,0,1,36.441,58.582Z" transform="translate(0.183 -2.817)" fill="#151a6a"/>
      <path id="路径_37" data-name="路径 37" d="M29.841,24.008H27.357a1.1,1.1,0,0,0-1.1,1.1v8.626a1.137,1.137,0,0,0,1.115,1.241s1.841-.008,2.555-.02c2.638-.044,4.551-2.342,4.551-5.462,0-3.28-1.864-5.484-4.639-5.484Zm.053,8.751c-.33,0-.906.011-1.428.014,0-1.037-.008-2.538-.008-3.3V26.2h1.384c1.8,0,2.442,1.7,2.442,3.287S31.544,32.73,29.894,32.759Z" transform="translate(12.372 6.756)" fill="#151a6a"/>
      <path id="路径_38" data-name="路径 38" d="M21.532,24.039a3.28,3.28,0,0,0-3.213,2.637,1.1,1.1,0,0,0,2.156.424,1.078,1.078,0,1,1,1.057,1.291,1.1,1.1,0,0,0,0,2.2,1.078,1.078,0,1,1-1.067,1.228,1.145,1.145,0,0,1-.01-.152,1.1,1.1,0,0,0-2.2,0,3.275,3.275,0,1,0,5.7-2.175,3.259,3.259,0,0,0-2.429-5.45Z" transform="translate(7.88 6.759)" fill="#151a6a"/>
    </g>
  </g>
</svg>
