<?xml version="1.0" encoding="UTF-8"?>
<svg width="512px" height="512px" viewBox="0 0 512 512" version="1.1" xmlns="http://www.w3.org/2000/svg" xmlns:xlink="http://www.w3.org/1999/xlink">
    <title>skype</title>
    <g id="Page-1" stroke="none" stroke-width="1" fill="none" fill-rule="evenodd">
        <g id="skype" fill="#FFFFFF" fill-rule="nonzero">
            <path d="M498.078125,307.289062 C501.660156,290.371094 503.472656,273.144531 503.472656,256 C503.472656,189.898438 477.730469,127.753906 430.992188,81.011719 C384.25,34.269531 322.105469,8.527344 256.003906,8.527344 C238.890625,8.527344 221.664062,10.339844 204.71875,13.925781 C185.582031,4.800781 164.414062,0 143.148438,0 C64.214844,0 -8.52651283e-14,64.214844 -8.52651283e-14,143.144531 C-8.52651283e-14,164.402344 4.800781,185.570312 13.925781,204.71875 C10.347656,221.632812 8.535156,238.855469 8.535156,256 C8.535156,322.101562 34.277344,384.246094 81.015625,430.988281 C127.753906,477.726562 189.898438,503.46875 256.003906,503.46875 C273.117188,503.46875 290.339844,501.652344 307.28125,498.074219 C326.425781,507.199219 347.59375,512 368.859375,512 C447.789062,512 512,447.785156 512,368.859375 C512,347.601562 507.199219,326.433594 498.078125,307.289062 L498.078125,307.289062 Z M368.859375,482 C350.296875,482 332.589844,477.628906 316.222656,469.003906 C314.050781,467.859375 311.648438,467.273438 309.230469,467.273438 C308.085938,467.273438 306.9375,467.40625 305.808594,467.671875 C289.382812,471.519531 272.628906,473.46875 256.003906,473.46875 C136.089844,473.46875 38.535156,375.914062 38.535156,256 C38.535156,239.34375 40.484375,222.589844 44.332031,206.203125 C45.15625,202.683594 44.683594,198.984375 43,195.785156 C34.371094,179.40625 30,161.695312 30,143.144531 C30,80.757812 80.757812,30 143.148438,30 C161.710938,30 179.414062,34.371094 195.773438,42.992188 C198.972656,44.679688 202.671875,45.152344 206.191406,44.328125 C222.621094,40.480469 239.378906,38.527344 256.003906,38.527344 C375.917969,38.527344 473.472656,136.085938 473.472656,256 C473.472656,272.65625 471.523438,289.414062 467.675781,305.804688 C466.847656,309.324219 467.320312,313.023438 469.003906,316.222656 C477.628906,332.597656 482,350.304688 482,368.859375 C482,431.246094 431.246094,482 368.859375,482 Z" id="Shape"></path>
            <path d="M256,140.035156 C300.246094,140.035156 337.632812,163.152344 337.632812,190.515625 C337.632812,198.800781 344.347656,205.515625 352.632812,205.515625 C360.914062,205.515625 367.632812,198.800781 367.632812,190.515625 C367.632812,167.894531 355.238281,147.042969 332.742188,131.796875 C312.03125,117.761719 284.777344,110.03125 256,110.03125 C227.222656,110.03125 199.96875,117.761719 179.257812,131.796875 C156.757812,147.042969 144.367188,167.894531 144.367188,190.515625 C144.367188,213.136719 156.757812,233.992188 179.257812,249.238281 C199.964844,263.273438 227.21875,271 256,271 C300.246094,271 337.632812,294.117188 337.632812,321.484375 C337.632812,348.847656 300.246094,371.964844 256,371.964844 C211.75,371.964844 174.367188,348.847656 174.367188,321.484375 C174.367188,313.199219 167.652344,306.484375 159.367188,306.484375 C151.085938,306.484375 144.367188,313.199219 144.367188,321.484375 C144.367188,344.101562 156.757812,364.957031 179.257812,380.203125 C199.96875,394.234375 227.222656,401.964844 256,401.964844 C284.777344,401.964844 312.03125,394.234375 332.742188,380.203125 C355.238281,364.957031 367.632812,344.101562 367.632812,321.484375 C367.632812,298.859375 355.238281,278.007812 332.742188,262.761719 C312.03125,248.730469 284.777344,241 256,241 C211.75,241 174.367188,217.882812 174.367188,190.515625 C174.367188,163.152344 211.75,140.035156 256,140.035156 Z" id="Path"></path>
        </g>
    </g>
</svg>