<svg xmlns="http://www.w3.org/2000/svg" width="96" height="95.992" viewBox="0 0 96 95.992">
  <g id="thinking" transform="translate(-1.001 -1.002)">
    <path id="路径_85" data-name="路径 85" d="M75.009,66.554a8.4,8.4,0,0,0-5.129,1.75L62.2,61.059a14.027,14.027,0,0,0-3.855-20.621L62.221,32.3a9.9,9.9,0,1,0-2.536-1.217l-3.88,8.134A14.075,14.075,0,0,0,38.1,57.985l-7.356,4.046A9.891,9.891,0,1,0,32.1,64.5l7.36-4.048A14.044,14.044,0,0,0,60.269,63.1l7.686,7.257a8.453,8.453,0,1,0,7.054-3.8Z" transform="translate(13.533 13.533)" fill="#c4a2fc"/>
    <g id="组_188" data-name="组 188" transform="translate(1.001 1.002)">
      <path id="路径_86" data-name="路径 86" d="M61.664,24.861A26.217,26.217,0,0,0,36.927,1.02,26.093,26.093,0,0,0,10.754,20.378,124.294,124.294,0,0,1,5.049,37.96L1.169,47.014a2.065,2.065,0,0,0,1.559,2.852l7.426,1.239,2.277,11.353a4.562,4.562,0,0,0,5.182,3.622l15.178-2.334V75.686a1.524,1.524,0,0,0,1.524,1.524H57.18A1.524,1.524,0,0,0,58.7,75.676L58.6,59.165a133,133,0,0,1,2.646-27.156,25.912,25.912,0,0,0,.421-7.149Zm-3.417,6.545A136.053,136.053,0,0,0,55.54,59.185l.1,14.977H35.83V61.968a1.524,1.524,0,0,0-1.756-1.507l-16.934,2.6a1.524,1.524,0,0,1-1.725-1.207L12.937,49.47a1.524,1.524,0,0,0-1.244-1.2L4.462,47.06l3.4-7.9a126.877,126.877,0,0,0,5.849-18.016A22.864,22.864,0,0,1,58.253,31.406Z" transform="translate(-1.001 -1.002)" fill="#151a6a"/>
      <path id="路径_87" data-name="路径 87" d="M39.851,10.028a15.835,15.835,0,1,0-21.123,23.6c4.767,4.275,3.485,9.2,3.681,10.485a6.1,6.1,0,0,0,6.1,6.1H30.1a6.1,6.1,0,0,0,6.1-6.1V41.1a9.775,9.775,0,0,1,3.547-7.353,15.834,15.834,0,0,0,.11-23.717ZM33.146,44.11A3.048,3.048,0,0,1,30.1,47.159H28.506a3.048,3.048,0,0,1-3.048-3.048V43.043h7.688ZM29.3,25.687a3.844,3.844,0,1,1,3.844-3.844A3.844,3.844,0,0,1,29.3,25.687Zm8.431,5.772A13.125,13.125,0,0,0,33.2,39.995H30.826V28.553a6.893,6.893,0,1,0-3.048,0V39.995H25.366a13.951,13.951,0,0,0-4.6-8.645,12.787,12.787,0,1,1,16.969.1Z" transform="translate(5.527 1.613)" fill="#151a6a"/>
    </g>
  </g>
</svg>
