<svg xmlns="http://www.w3.org/2000/svg" width="96" height="96.002" viewBox="0 0 96 96.002">
  <g id="video" transform="translate(-1.001 -1)">
    <path id="路径_96" data-name="路径 96" d="M36.534,53.968l16.1-9.294-16.1-9.294Z" transform="translate(24.973 26.336)" fill="#c4a2fc"/>
    <path id="路径_97" data-name="路径 97" d="M73.3,25H29.14A4.14,4.14,0,0,0,25,29.14V73.3a4.14,4.14,0,0,0,4.14,4.14H73.3a4.14,4.14,0,0,0,4.14-4.14V29.14A4.14,4.14,0,0,0,73.3,25ZM62.9,53.611,42.3,65.509a2.76,2.76,0,0,1-4.14-2.39v-23.8a2.76,2.76,0,0,1,4.14-2.389L62.9,48.831a2.76,2.76,0,0,1,0,4.781Z" transform="translate(19.558 19.559)" fill="#c4a2fc"/>
    <path id="路径_98" data-name="路径 98" d="M66.328,24.743H16.145l51.588-12.8a1.484,1.484,0,0,0,1.083-1.8L67.386,4.381a4.452,4.452,0,0,0-5.4-3.248L4.38,15.427a4.452,4.452,0,0,0-3.247,5.394l1.385,5.586v38.4A4.452,4.452,0,0,0,6.97,69.262H66.328A4.452,4.452,0,0,0,70.78,64.81V29.2a4.452,4.452,0,0,0-4.452-4.452ZM67.812,29.2v4.452H56.554l5.936-5.936h3.838A1.484,1.484,0,0,1,67.812,29.2ZM43.2,33.647l5.936-5.936h9.159l-5.936,5.936Zm-13.356,0,5.936-5.936h9.159L39,33.647Zm-13.356,0,5.936-5.936h9.159l-5.936,5.936Zm-11,0V27.711H18.227l-5.936,5.936ZM23.223,13.811l7.191,4.33-8.89,2.207-7.191-4.332Zm12.964-3.217,7.19,4.332-8.89,2.205L27.3,12.8ZM49.149,7.381l7.188,4.33-8.89,2.2L40.259,9.583ZM62.707,4.017A1.484,1.484,0,0,1,64.5,5.1L65.577,9.42,60.411,10.7l-7.19-4.333ZM5.1,18.309l5.164-1.282,7.19,4.332L5.085,24.427,4.014,20.106a1.484,1.484,0,0,1,1.083-1.8ZM66.328,66.294H6.97A1.484,1.484,0,0,1,5.486,64.81v-28.2H67.812v28.2A1.484,1.484,0,0,1,66.328,66.294Z" fill="#151a6a"/>
  </g>
</svg>
