<?xml version="1.0" encoding="UTF-8"?>
<svg width="512px" height="512px" viewBox="0 0 512 512" version="1.1" xmlns="http://www.w3.org/2000/svg" xmlns:xlink="http://www.w3.org/1999/xlink">
    <title>Group</title>
    <g id="Page-1" stroke="none" stroke-width="1" fill="none" fill-rule="evenodd">
        <g id="Group">
            <rect id="Rectangle" x="0" y="0" width="512" height="512"></rect>
            <g id="wechat" transform="translate(0.000000, 35.000000)" fill="#FFFFFF" fill-rule="nonzero">
                <path d="M512,292.402344 C512,217.992188 448.1875,156.703125 367.058594,150.199219 C363.328125,111.34375 344.558594,75.339844 313.246094,47.597656 C278.601562,16.902344 232.660156,2.84217094e-14 183.886719,2.84217094e-14 C135.105469,2.84217094e-14 89.164062,16.902344 54.519531,47.59375 C19.359375,78.742188 -2.84217094e-14,120.300781 -2.84217094e-14,164.617188 C-2.84217094e-14,216.097656 26.71875,264.21875 72.011719,295.300781 L62.867188,334.214844 C61.480469,340.105469 63.769531,346.25 68.671875,349.796875 C71.289062,351.691406 74.375,352.648438 77.46875,352.648438 C80.171875,352.648438 82.882812,351.917969 85.289062,350.445312 L131.210938,322.382812 C148.25,326.933594 165.9375,329.238281 183.886719,329.238281 C188.839844,329.238281 193.808594,329.054688 198.746094,328.703125 C216.703125,389.910156 278.945312,435.1875 352.765625,435.1875 C371.777344,435.1875 390.320312,432.226562 407.972656,426.375 L447.367188,441.238281 C449.089844,441.890625 450.882812,442.207031 452.660156,442.207031 C456.429688,442.207031 460.132812,440.785156 462.96875,438.105469 C467.140625,434.160156 468.695312,428.183594 466.972656,422.707031 L459.367188,398.515625 C492.957031,371.453125 512,333.332031 512,292.402344 Z M183.886719,299.234375 C166.574219,299.234375 149.578125,296.734375 133.363281,291.800781 C129.265625,290.554688 124.832031,291.117188 121.175781,293.351562 L100.285156,306.121094 L103.636719,291.855469 C105.128906,285.515625 102.355469,278.9375 96.777344,275.578125 C54.964844,250.386719 30,208.90625 30,164.617188 C30,90.390625 99.03125,30 183.886719,30 C263.214844,30 328.710938,82.792969 336.894531,150.328125 C256.511719,157.492188 193.527344,218.476562 193.527344,292.402344 C193.527344,294.59375 193.589844,296.773438 193.699219,298.941406 C190.433594,299.121094 187.15625,299.234375 183.886719,299.234375 Z M433.292969,380.585938 C427.917969,384.332031 425.59375,391.140625 427.5625,397.390625 L429.097656,402.28125 L413.464844,396.378906 C410.089844,395.109375 406.367188,395.09375 402.980469,396.339844 C387.058594,402.210938 370.167969,405.1875 352.765625,405.1875 C281.503906,405.1875 223.527344,354.59375 223.527344,292.40625 C223.527344,230.214844 281.503906,179.621094 352.765625,179.621094 C424.027344,179.621094 482,230.214844 482,292.40625 C482,326.875 464.246094,359.015625 433.292969,380.585938 L433.292969,380.585938 Z" id="Shape"></path>
                <path d="M123.78125,106.082031 C119.828125,106.082031 115.96875,107.683594 113.167969,110.472656 C110.378906,113.261719 108.78125,117.132812 108.78125,121.082031 C108.78125,125.03125 110.378906,128.894531 113.167969,131.683594 C115.96875,134.484375 119.828125,136.082031 123.78125,136.082031 C127.726562,136.082031 131.589844,134.484375 134.386719,131.683594 C137.179688,128.894531 138.78125,125.035156 138.78125,121.082031 C138.78125,117.132812 137.179688,113.261719 134.386719,110.472656 C131.589844,107.683594 127.730469,106.082031 123.78125,106.082031 Z" id="Path"></path>
                <path d="M252.289062,136.082031 C256.238281,136.082031 260.109375,134.484375 262.898438,131.683594 C265.6875,128.894531 267.289062,125.035156 267.289062,121.082031 C267.289062,117.132812 265.691406,113.261719 262.898438,110.472656 C260.109375,107.683594 256.238281,106.082031 252.289062,106.082031 C248.339844,106.082031 244.480469,107.683594 241.691406,110.472656 C238.890625,113.261719 237.289062,117.132812 237.289062,121.082031 C237.289062,125.03125 238.890625,128.894531 241.691406,131.683594 C244.480469,134.484375 248.339844,136.082031 252.289062,136.082031 Z" id="Path"></path>
                <path d="M296.898438,239.242188 C292.949219,239.242188 289.082031,240.84375 286.289062,243.632812 C283.5,246.421875 281.898438,250.292969 281.898438,254.234375 C281.898438,258.183594 283.5,262.054688 286.289062,264.84375 C289.089844,267.644531 292.949219,269.242188 296.898438,269.242188 C300.839844,269.242188 304.710938,267.644531 307.507812,264.84375 C310.300781,262.054688 311.898438,258.183594 311.898438,254.234375 C311.898438,250.292969 310.300781,246.421875 307.507812,243.632812 C304.710938,240.84375 300.851562,239.242188 296.898438,239.242188 Z" id="Path"></path>
                <path d="M403,239 C399.050781,239 395.179687,240.601562 392.390625,243.390624 C389.601563,246.179687 388,250.050781 388,253.992187 C388,257.941406 389.601563,261.8125 392.390625,264.601562 C395.191406,267.402343 399.050781,269 403,269 C406.949219,269 410.8125,267.402343 413.601563,264.601562 C416.402344,261.8125 418,257.941406 418,253.992187 C418,250.050781 416.398437,246.179687 413.601563,243.390624 C410.8125,240.601562 406.953125,239 403,239 Z" id="Path"></path>
            </g>
        </g>
    </g>
</svg>